<?xml version="1.0" encoding="UTF-8" standalone="no"?>
<!-- Generator: Adobe Illustrator 15.1.0, SVG Export Plug-In . SVG Version: 6.00 Build 0)  -->

<svg
   xmlns:dc="http://purl.org/dc/elements/1.1/"
   xmlns:cc="http://creativecommons.org/ns#"
   xmlns:rdf="http://www.w3.org/1999/02/22-rdf-syntax-ns#"
   xmlns:svg="http://www.w3.org/2000/svg"
   xmlns="http://www.w3.org/2000/svg"
   xmlns:sodipodi="http://sodipodi.sourceforge.net/DTD/sodipodi-0.dtd"
   xmlns:inkscape="http://www.inkscape.org/namespaces/inkscape"
   version="1.1"
   x="0px"
   y="0px"
   width="951.22101"
   height="130.49699"
   viewBox="0 0 951.22101 130.49699"
   enable-background="new 0 0 1000 240"
   xml:space="preserve"
   id="svg44"
   sodipodi:docname="StrasbourgStartupsLogo.svg"
   inkscape:version="0.92.2 2405546, 2018-03-11"><metadata
   id="metadata50"><rdf:RDF><cc:Work
       rdf:about=""><dc:format>image/svg+xml</dc:format><dc:type
         rdf:resource="http://purl.org/dc/dcmitype/StillImage" /><dc:title></dc:title></cc:Work></rdf:RDF></metadata><defs
   id="defs48" /><sodipodi:namedview
   pagecolor="#ffffff"
   bordercolor="#666666"
   borderopacity="1"
   objecttolerance="10"
   gridtolerance="10"
   guidetolerance="10"
   inkscape:pageopacity="0"
   inkscape:pageshadow="2"
   inkscape:window-width="3840"
   inkscape:window-height="2086"
   id="namedview46"
   showgrid="false"
   fit-margin-top="0"
   fit-margin-left="0"
   fit-margin-right="0"
   fit-margin-bottom="0"
   inkscape:zoom="1.83"
   inkscape:cx="504.10278"
   inkscape:cy="117.44734"
   inkscape:window-x="3200"
   inkscape:window-y="0"
   inkscape:window-maximized="1"
   inkscape:current-layer="svg44" />

<g
   id="Text"
   transform="translate(-26.378,-71.089)"
   style="fill:#97bf0b">
	<g
   id="g41"
   style="fill:#97bf0b">
		<path
   d="m 53.082,83.58 c -7.375,0 -11.42,4.342 -11.42,11.598 0,6.603 3.45,11.717 7.613,15.048 l 19.033,15.227 c 7.792,6.305 15.227,15.821 15.227,29.442 0,15.821 -10.646,24.921 -26.646,24.921 -19.925,0 -29.323,-12.906 -30.453,-31.523 l 15.227,-3.807 c 0.536,11.004 3.688,22.84 15.227,22.84 7.613,0 11.42,-3.807 11.42,-11.42 0,-9.576 -5.888,-14.572 -11.42,-19.033 L 37.857,121.646 c -6.542,-5.115 -11.479,-13.561 -11.479,-24.862 0,-15.821 10.706,-25.695 26.706,-25.695 18.855,0 29.085,10.409 30.453,27.717 L 68.31,102.613 C 67.654,92.502 63.848,83.58 53.082,83.58 Z"
   id="path5"
   inkscape:connector-curvature="0"
   style="fill:#97bf0b" />
		<path
   d="m 114.353,179.816 c -12.252,0 -17.13,-6.424 -17.249,-18.438 V 114.033 H 89.49 v -11.42 h 7.613 V 75.967 h 15.227 v 26.646 h 11.42 v 11.42 h -11.42 v 44.431 c 0,5.412 0.833,8.862 6.305,8.862 1.428,0 3.748,-0.356 5.115,-0.595 v 12.371 c -3.807,0.477 -5.71,0.714 -9.397,0.714 z"
   id="path7"
   inkscape:connector-curvature="0"
   style="fill:#97bf0b" />
		<path
   d="m 164.973,101.542 c 0.773,0 1.309,0.119 2.438,0.238 v 16.833 c -2.26,-0.893 -5.472,-1.666 -8.446,-1.666 -6.305,0 -10.587,4.104 -10.587,10.409 v 51.39 h -15.227 v -76.133 h 15.227 v 10.171 c 2.736,-5.293 8.744,-11.242 16.595,-11.242 z"
   id="path9"
   inkscape:connector-curvature="0"
   style="fill:#97bf0b" />
		<path
   d="m 215.059,125.453 v 34.26 c 0,7.792 0.476,13.621 1.963,19.033 h -15.167 l -2.022,-11.42 c -3.034,6.008 -6.424,12.49 -15.227,12.49 -8.803,0 -15.227,-9.04 -15.227,-17.902 0,-19.807 15.762,-25.22 30.453,-30.989 v -5.472 c 0,-6.721 -1.249,-12.134 -7.613,-12.134 -6.246,0 -7.613,5.472 -7.613,12.134 h -15.227 c 0.178,-14.394 8.386,-23.911 22.84,-23.911 14.453,0 22.84,9.755 22.84,23.911 z m -30.454,32.416 c 0,5.71 2.141,9.457 7.613,9.457 3.688,0 6.007,-3.45 7.613,-5.591 V 140.68 c -6.006,4.045 -15.226,7.969 -15.226,17.189 z"
   id="path11"
   inkscape:connector-curvature="0"
   style="fill:#97bf0b" />
		<path
   d="m 247.123,114.033 c -4.817,0 -7.613,2.736 -7.613,7.613 0,2.975 2.142,5.175 3.807,6.424 l 15.227,11.42 c 6.008,4.817 11.42,10.587 11.42,20.223 0,13.323 -9.338,20.104 -22.84,20.104 -13.382,0 -20.282,-9.278 -22.84,-20.104 l 11.42,-3.807 c 1.725,4.817 4.997,11.42 11.42,11.42 4.818,0 7.613,-2.736 7.613,-7.613 0,-4.163 -1.665,-6.84 -3.807,-8.803 l -15.227,-11.42 c -5.769,-3.985 -11.42,-8.803 -11.42,-17.844 0,-13.323 9.338,-20.104 22.84,-20.104 13.621,0 20.283,9.279 22.84,20.104 l -11.42,3.807 c -1.844,-4.818 -4.877,-11.42 -11.42,-11.42 z"
   id="path13"
   inkscape:connector-curvature="0"
   style="fill:#97bf0b" />
		<path
   d="m 310.235,179.816 c -6.959,0 -11.717,-4.342 -15.227,-7.97 v 6.899 H 279.781 V 72.22 h 15.227 v 37.947 c 4.104,-4.342 7.97,-8.625 15.464,-8.625 18.617,0 18.795,22.245 18.795,41.874 v 1.011 c 0.002,15.465 -3.805,35.389 -19.032,35.389 z m 3.867,-50.021 c 0,-7.791 -0.773,-15.762 -7.673,-15.762 -4.223,0 -8.625,1.368 -11.42,3.033 v 47.881 c 3.39,1.368 7.494,2.379 11.42,2.379 6.84,0 7.732,-11.063 7.732,-21.056 0,-3.449 -0.119,-6.78 -0.119,-9.457 0,-2.141 0.06,-4.58 0.06,-7.018 z"
   id="path15"
   inkscape:connector-curvature="0"
   style="fill:#97bf0b" />
		<path
   d="m 340.338,152.1 v -22.84 c 0,-16.892 5.71,-27.717 22.84,-27.717 17.13,0 22.84,10.825 22.84,27.717 v 22.84 c 0,16.892 -5.71,27.717 -22.84,27.717 -17.13,0 -22.84,-10.826 -22.84,-27.717 z m 15.227,-22.84 v 22.84 c 0,7.613 0,15.227 7.613,15.227 7.613,0 7.613,-7.613 7.613,-15.227 v -22.84 c 0,-7.613 0,-15.227 -7.613,-15.227 -7.613,0 -7.613,7.613 -7.613,15.227 z"
   id="path17"
   inkscape:connector-curvature="0"
   style="fill:#97bf0b" />
		<path
   d="m 408.983,179.816 c -6.781,0 -11.063,-5.531 -11.063,-12.312 v -64.892 h 15.227 v 60.252 c 0,3.152 2.141,5.354 5.234,5.354 4.461,0 7.435,-3.271 9.993,-5.354 V 102.612 H 443.6 v 76.133 h -15.227 v -8.208 c -5.413,4.818 -10.29,9.279 -19.39,9.279 z"
   id="path19"
   inkscape:connector-curvature="0"
   style="fill:#97bf0b" />
		<path
   d="m 489.345,101.542 c 0.773,0 1.309,0.119 2.438,0.238 v 16.833 c -2.26,-0.893 -5.472,-1.666 -8.446,-1.666 -6.305,0 -10.587,4.104 -10.587,10.409 v 51.39 h -15.227 v -76.133 h 15.227 v 10.171 c 2.736,-5.293 8.744,-11.242 16.595,-11.242 z"
   id="path21"
   inkscape:connector-curvature="0"
   style="fill:#97bf0b" />
		<path
   d="m 517.78,101.542 c 8.743,0 12.906,3.569 16.416,8.981 2.498,-4.639 6.84,-8.981 14.037,-8.981 v 12.491 c -4.342,0 -7.376,1.666 -9.517,3.807 1.011,2.974 1.903,6.959 1.903,11.42 0,15.583 -7.316,27.598 -22.84,27.598 -1.666,0 -3.331,-0.178 -4.818,-0.416 l -2.854,-0.476 c -0.714,1.309 -2.082,3.033 -2.082,4.877 0,5.532 14.691,4.937 20.104,5.65 10.23,1.368 20.104,4.461 20.104,16.06 0,14.216 -12.669,18.974 -26.646,18.974 -11.36,0 -30.453,-0.119 -30.453,-11.182 0,-8.565 5.472,-13.918 11.42,-16.893 -3.509,-0.951 -7.613,-3.093 -7.613,-6.661 0,-5.71 4.937,-11.301 7.613,-14.691 -4.699,-5.591 -7.613,-13.323 -7.613,-22.84 -10e-4,-15.584 7.732,-27.718 22.839,-27.718 z m 17.13,83.093 c 0,-0.654 -0.06,-1.309 -0.238,-1.963 -0.535,-2.975 -4.521,-4.937 -11.955,-5.829 l -12.55,-1.487 c -2.855,2.082 -5.591,6.603 -5.591,11.42 0,4.521 12.312,3.51 17.011,3.51 5.412,-0.001 13.323,-0.358 13.323,-5.651 z M 517.78,112.13 c -7.852,0 -9.517,9.278 -9.517,17.13 0,7.792 1.784,16.178 9.517,16.178 7.792,0 9.517,-8.386 9.517,-16.178 0,-7.852 -1.784,-17.13 -9.517,-17.13 z"
   id="path23"
   inkscape:connector-curvature="0"
   style="fill:#97bf0b" />
		<path
   d="m 600.047,83.58 c -7.375,0 -11.42,4.342 -11.42,11.598 0,6.603 3.45,11.717 7.613,15.048 l 19.033,15.227 c 7.792,6.305 15.227,15.821 15.227,29.442 0,15.821 -10.646,24.921 -26.646,24.921 -19.925,0 -29.323,-12.906 -30.453,-31.523 l 15.227,-3.807 c 0.535,11.004 3.688,22.84 15.227,22.84 7.613,0 11.42,-3.807 11.42,-11.42 0,-9.576 -5.889,-14.572 -11.42,-19.033 l -19.033,-15.227 c -6.542,-5.115 -11.479,-13.561 -11.479,-24.862 0,-15.821 10.706,-25.695 26.706,-25.695 18.855,0 29.085,10.409 30.453,27.717 l -15.227,3.807 C 614.619,92.502 610.813,83.58 600.047,83.58 Z"
   id="path25"
   inkscape:connector-curvature="0"
   style="fill:#97bf0b" />
		<path
   d="m 661.317,179.816 c -12.253,0 -17.13,-6.424 -17.249,-18.438 v -47.345 h -7.613 v -11.42 h 7.613 V 75.967 h 15.227 v 26.646 h 11.42 v 11.42 h -11.42 v 44.431 c 0,5.412 0.833,8.862 6.305,8.862 1.428,0 3.747,-0.356 5.115,-0.595 v 12.371 c -3.807,0.477 -5.71,0.714 -9.398,0.714 z"
   id="path27"
   inkscape:connector-curvature="0"
   style="fill:#97bf0b" />
		<path
   d="m 722.109,125.453 v 34.26 c 0,7.792 0.476,13.621 1.963,19.033 h -15.167 l -2.022,-11.42 c -3.033,6.008 -6.424,12.49 -15.227,12.49 -8.803,0 -15.227,-9.04 -15.227,-17.902 0,-19.807 15.762,-25.22 30.453,-30.989 v -5.472 c 0,-6.721 -1.249,-12.134 -7.613,-12.134 -6.245,0 -7.613,5.472 -7.613,12.134 H 676.43 c 0.179,-14.394 8.387,-23.911 22.84,-23.911 14.453,0 22.839,9.755 22.839,23.911 z m -30.453,32.416 c 0,5.71 2.141,9.457 7.613,9.457 3.688,0 6.007,-3.45 7.613,-5.591 V 140.68 c -6.007,4.045 -15.226,7.969 -15.226,17.189 z"
   id="path29"
   inkscape:connector-curvature="0"
   style="fill:#97bf0b" />
		<path
   d="m 766.783,101.542 c 0.773,0 1.309,0.119 2.438,0.238 v 16.833 c -2.26,-0.893 -5.472,-1.666 -8.446,-1.666 -6.305,0 -10.587,4.104 -10.587,10.409 v 51.39 h -15.227 v -76.133 h 15.227 v 10.171 c 2.737,-5.293 8.744,-11.242 16.595,-11.242 z"
   id="path31"
   inkscape:connector-curvature="0"
   style="fill:#97bf0b" />
		<path
   d="m 795.754,179.816 c -12.253,0 -17.13,-6.424 -17.249,-18.438 v -47.345 h -7.613 v -11.42 h 7.613 V 75.967 h 15.227 v 26.646 h 11.42 v 11.42 h -11.42 v 44.431 c 0,5.412 0.833,8.862 6.305,8.862 1.428,0 3.747,-0.356 5.115,-0.595 v 12.371 c -3.807,0.477 -5.711,0.714 -9.398,0.714 z"
   id="path33"
   inkscape:connector-curvature="0"
   style="fill:#97bf0b" />
		<path
   d="m 825.021,179.816 c -6.781,0 -11.063,-5.531 -11.063,-12.312 v -64.892 h 15.227 v 60.252 c 0,3.152 2.142,5.354 5.234,5.354 4.461,0 7.435,-3.271 9.992,-5.354 v -60.252 h 15.227 v 76.133 h -15.227 v -8.208 c -5.413,4.818 -10.29,9.279 -19.39,9.279 z"
   id="path35"
   inkscape:connector-curvature="0"
   style="fill:#97bf0b" />
		<path
   d="m 904.016,179.816 c -6.899,0 -11.776,-4.282 -15.227,-7.91 v 29.68 h -15.227 v -98.973 h 15.227 v 7.613 c 4.163,-4.401 7.97,-8.684 15.465,-8.684 18.616,0 18.795,22.245 18.795,41.814 v 1.13 c 0,15.465 -3.807,35.33 -19.033,35.33 z m 3.806,-43.538 c 0,-9.517 -0.119,-23.019 -8.981,-23.019 -4.163,0 -7.256,2.201 -10.052,3.866 v 47.107 c 3.331,1.963 7.197,3.093 11.42,3.093 6.84,0 7.732,-11.063 7.732,-20.996 0,-3.449 -0.119,-6.78 -0.119,-9.457 z"
   id="path37"
   inkscape:connector-curvature="0"
   style="fill:#97bf0b" />
		<path
   d="m 954.758,114.033 c -4.818,0 -7.613,2.736 -7.613,7.613 0,2.975 2.141,5.175 3.807,6.424 l 15.227,11.42 c 6.007,4.817 11.42,10.587 11.42,20.223 0,13.323 -9.339,20.104 -22.84,20.104 -13.383,0 -20.282,-9.278 -22.84,-20.104 l 11.42,-3.807 c 1.725,4.817 4.996,11.42 11.42,11.42 4.817,0 7.613,-2.736 7.613,-7.613 0,-4.163 -1.666,-6.84 -3.807,-8.803 l -15.227,-11.42 c -5.77,-3.985 -11.42,-8.803 -11.42,-17.844 0,-13.323 9.338,-20.104 22.84,-20.104 13.62,0 20.282,9.279 22.84,20.104 l -11.42,3.807 c -1.844,-4.818 -4.878,-11.42 -11.42,-11.42 z"
   id="path39"
   inkscape:connector-curvature="0"
   style="fill:#97bf0b" />
	</g>
</g>
</svg>
